# xmcd CD database file
#
# Track frame offsets:
#	150
#	21906
#	42409
#	73114
#	101274
#	125318
#	153561
#	171671
#	193924
#	215617
#	239726
#
# Disc length: 3430 seconds
#
# Revision: 0
# Processed by: cddbd v1.5.2PL0 Copyright (c) Steve Scherf et al.
# Submitted via: CDex 1.51
#
DISCID=a70d640b
DTITLE=Josef Burchartz - Every Breath I Take
DYEAR=2009
DGENRE=Jazz
TTITLE0=l.a. calling
TTITLE1=sure enough
TTITLE2=no samba
TTITLE3=night spot
TTITLE4=no discount
TTITLE5=one of this lonely nights
TTITLE6=tuesday morning
TTITLE7=chasing chase
TTITLE8=longing for despair
TTITLE9=nu orleans
TTITLE10=joy spring
EXTD=YEAR: 2009
EXTT0=
EXTT1=
EXTT2=
EXTT3=
EXTT4=
EXTT5=
EXTT6=
EXTT7=
EXTT8=
EXTT9=
EXTT10=
PLAYORDER=
